<?xml version="1.0" encoding="utf-8"?>
<svg viewBox="0 0 500 500" xmlns="http://www.w3.org/2000/svg">
  <g data-name="Award, award badge, award ribbon, badge, ribbon badge" transform="matrix(5.061437129974365, 0, 0, 5.061437129974365, -16.070003509521484, -13.253097534179684)" style="">
    <path d="M50,8.84A26.83,26.83,0,1,0,76.82,35.66,26.85,26.85,0,0,0,50,8.84Z" style="fill: rgb(255, 255, 255);"/>
    <path d="M63.79,64.59a2.21,2.21,0,0,0-2.25,0,22.35,22.35,0,0,1-23.08,0,2.23,2.23,0,0,0-3.38,1.9V88.93a2.22,2.22,0,0,0,3.46,1.85L50,83.15l11.46,7.63a2.2,2.2,0,0,0,1.23.38,2.3,2.3,0,0,0,1.05-.26,2.23,2.23,0,0,0,1.18-2V66.52A2.23,2.23,0,0,0,63.79,64.59Z" style="fill: rgb(255, 255, 255);"/>
  </g>
</svg>