<?xml version="1.0" encoding="UTF-8"?>
<!DOCTYPE svg PUBLIC "-//W3C//DTD SVG 1.1//EN" "http://www.w3.org/Graphics/SVG/1.1/DTD/svg11.dtd">
<svg xmlns="http://www.w3.org/2000/svg" version="1.1" width="170px" height="153px" style="shape-rendering:geometricPrecision; text-rendering:geometricPrecision; image-rendering:optimizeQuality; fill-rule:evenodd; clip-rule:evenodd" xmlns:xlink="http://www.w3.org/1999/xlink">
<g><path style="opacity:0.903" fill="#1b6ec6" d="M 89.5,34.5 C 88.8407,37.4082 88.0074,37.7416 87,35.5C 85.3333,35.5 83.6667,35.5 82,35.5C 81.0471,37.3731 79.8804,37.7065 78.5,36.5C 80.4072,33.0246 82.5738,29.6912 85,26.5C 87.2841,28.7357 88.7841,31.4024 89.5,34.5 Z"/></g>
<g><path style="opacity:0.99" fill="#186dc8" d="M 89.5,34.5 C 92.8899,39.2329 95.8899,44.2329 98.5,49.5C 89.1713,50.8274 80.1713,50.8274 71.5,49.5C 73.579,45.0074 75.9123,40.674 78.5,36.5C 79.8804,37.7065 81.0471,37.3731 82,35.5C 83.6667,35.5 85.3333,35.5 87,35.5C 88.0074,37.7416 88.8407,37.4082 89.5,34.5 Z"/></g>
<g><path style="opacity:0.977" fill="#156bc6" d="M 98.5,49.5 C 101.258,52.678 103.258,56.3447 104.5,60.5C 102.321,60.16 100.488,59.16 99,57.5C 97.7212,59.9371 96.2212,60.4371 94.5,59C 94.8333,58.6667 95.1667,58.3333 95.5,58C 93.1527,57.6664 90.8194,57.833 88.5,58.5C 87.3556,56.8998 86.1889,55.2331 85,53.5C 83.8111,55.2331 82.6444,56.8998 81.5,58.5C 76.6342,58.0807 71.6342,58.0807 66.5,58.5C 67.7738,55.2402 69.4405,52.2402 71.5,49.5C 80.1713,50.8274 89.1713,50.8274 98.5,49.5 Z"/></g>
<g><path style="opacity:0.954" fill="#1368c3" d="M 81.5,58.5 C 79.6563,62.8638 77.323,66.8638 74.5,70.5C 69.658,70.865 64.658,70.865 59.5,70.5C 61.332,66.1638 63.6654,62.1638 66.5,58.5C 71.6342,58.0807 76.6342,58.0807 81.5,58.5 Z"/></g>
<g><path style="opacity:0.969" fill="#1369c3" d="M 104.5,60.5 C 107,63.4937 109,66.827 110.5,70.5C 105.711,70.6351 100.711,70.6351 95.5,70.5C 92.6654,66.8362 90.332,62.8362 88.5,58.5C 90.8194,57.833 93.1527,57.6664 95.5,58C 95.1667,58.3333 94.8333,58.6667 94.5,59C 96.2212,60.4371 97.7212,59.9371 99,57.5C 100.488,59.16 102.321,60.16 104.5,60.5 Z"/></g>
<g><path style="opacity:0.961" fill="#1064be" d="M 59.5,70.5 C 64.658,70.865 69.658,70.865 74.5,70.5C 72.754,74.3267 70.754,77.9934 68.5,81.5C 63.0735,81.2175 57.7401,81.5509 52.5,82.5C 54.332,78.1638 56.6654,74.1638 59.5,70.5 Z"/></g>
<g><path style="opacity:0.952" fill="#1064be" d="M 95.5,70.5 C 100.711,70.6351 105.711,70.6351 110.5,70.5C 113.069,73.961 115.403,77.6277 117.5,81.5C 112.167,81.5 106.833,81.5 101.5,81.5C 99.2336,77.9663 97.2336,74.2996 95.5,70.5 Z"/></g>
<g><path style="opacity:0.908" fill="#0e60b8" d="M 92.5,90.5 C 87.475,89.2159 82.475,89.2159 77.5,90.5C 79.4711,85.8949 81.9711,81.5615 85,77.5C 88.0289,81.5615 90.5289,85.8949 92.5,90.5 Z"/></g>
<g><path style="opacity:0.935" fill="#0e60b8" d="M 68.5,81.5 C 66.8193,84.2028 65.1526,86.8695 63.5,89.5C 59.8307,90.7506 56.164,90.7506 52.5,89.5C 50.8045,90.1744 49.1379,90.8411 47.5,91.5C 48.7738,88.2402 50.4405,85.2402 52.5,82.5C 57.7401,81.5509 63.0735,81.2175 68.5,81.5 Z"/></g>
<g><path style="opacity:0.956" fill="#0e60b8" d="M 101.5,81.5 C 106.833,81.5 112.167,81.5 117.5,81.5C 118.5,83.5 119.5,85.5 120.5,87.5C 120.649,88.552 120.483,89.552 120,90.5C 115.733,90.2884 111.233,89.9551 106.5,89.5C 104.847,86.8695 103.181,84.2028 101.5,81.5 Z"/></g>
<g><path style="opacity:0.957" fill="#0c5cb1" d="M 120.5,87.5 C 122.75,90.9988 124.75,94.6654 126.5,98.5C 121.073,98.7825 115.74,98.4491 110.5,97.5C 109.153,94.8068 107.82,92.1401 106.5,89.5C 111.233,89.9551 115.733,90.2884 120,90.5C 120.483,89.552 120.649,88.552 120.5,87.5 Z"/></g>
<g><path style="opacity:0.947" fill="#0c5cb1" d="M 63.5,89.5 C 62.0991,92.6339 60.4325,95.6339 58.5,98.5C 53.5,98.5 48.5,98.5 43.5,98.5C 44.0787,95.6689 45.412,93.3356 47.5,91.5C 49.1379,90.8411 50.8045,90.1744 52.5,89.5C 56.164,90.7506 59.8307,90.7506 63.5,89.5 Z"/></g>
<g><path style="opacity:0.927" fill="#0b5bb1" d="M 92.5,90.5 C 91.8466,91.8068 91.1799,93.1401 90.5,94.5C 96.8386,95.5834 103.172,96.5834 109.5,97.5C 97.5,98.8333 85.5,98.8333 73.5,97.5C 74.0787,94.6689 75.412,92.3356 77.5,90.5C 82.475,89.2159 87.475,89.2159 92.5,90.5 Z"/></g>
<g><path style="opacity:0.985" fill="#0a58ab" d="M 73.5,97.5 C 85.5,98.8333 97.5,98.8333 109.5,97.5C 109.833,97.5 110.167,97.5 110.5,97.5C 115.74,98.4491 121.073,98.7825 126.5,98.5C 128.25,99.6594 129.25,101.326 129.5,103.5C 109.674,104.497 89.6736,104.83 69.5,104.5C 70.0787,101.669 71.412,99.3356 73.5,97.5 Z"/></g>
<g><path style="opacity:0.955" fill="#0a58ab" d="M 43.5,98.5 C 48.5,98.5 53.5,98.5 58.5,98.5C 57.6493,100.882 56.316,102.882 54.5,104.5C 49.6367,104.819 44.97,104.486 40.5,103.5C 40.7497,101.326 41.7497,99.6594 43.5,98.5 Z"/></g>
<g><path style="opacity:0.971" fill="#0955a5" d="M 40.5,103.5 C 44.97,104.486 49.6367,104.819 54.5,104.5C 54.0075,106.819 53.0075,108.819 51.5,110.5C 46.5,110.5 41.5,110.5 36.5,110.5C 37.0787,107.669 38.412,105.336 40.5,103.5 Z"/></g>
<g><path style="opacity:0.966" fill="#0955a5" d="M 129.5,103.5 C 131.588,105.336 132.921,107.669 133.5,110.5C 125.981,110.175 118.648,110.508 111.5,111.5C 96.1927,108.423 80.8594,107.923 65.5,110C 66.4881,107.833 67.8214,106 69.5,104.5C 89.6736,104.83 109.674,104.497 129.5,103.5 Z"/></g>
<g><path style="opacity:0.979" fill="#0851a0" d="M 111.5,111.5 C 118.648,110.508 125.981,110.175 133.5,110.5C 134.89,111.899 135.89,113.566 136.5,115.5C 132.958,115.187 129.625,115.521 126.5,116.5C 121.558,114.63 116.558,112.964 111.5,111.5 Z"/></g>
<g><path style="opacity:0.92" fill="#08509d" d="M 36.5,110.5 C 41.5,110.5 46.5,110.5 51.5,110.5C 50.9717,111.721 50.305,112.887 49.5,114C 43.3164,116.504 37.1498,119.004 31,121.5C 31.7517,117.33 33.585,113.663 36.5,110.5 Z"/></g>
<g><path style="opacity:0.817" fill="#074e99" d="M 126.5,116.5 C 129.625,115.521 132.958,115.187 136.5,115.5C 138.175,117.179 139.008,119.179 139,121.5C 134.941,119.536 130.774,117.87 126.5,116.5 Z"/></g>
</svg>
